<?xml version="1.0" encoding="UTF-8"?>
<!DOCTYPE svg PUBLIC "-//W3C//DTD SVG 1.1//EN" "http://www.w3.org/Graphics/SVG/1.1/DTD/svg11.dtd">
<!-- Creator: CorelDRAW 2018 (64-Bit) -->
<svg xmlns="http://www.w3.org/2000/svg" xml:space="preserve" width="210mm" height="297mm" version="1.1" style="shape-rendering:geometricPrecision; text-rendering:geometricPrecision; image-rendering:optimizeQuality; fill-rule:evenodd; clip-rule:evenodd"
viewBox="0 0 21000 29700"
 xmlns:xlink="http://www.w3.org/1999/xlink"
 enable-background="new 0 0 24 24">
 <defs>
  <style type="text/css">
   <![CDATA[
    .fil0 {fill:white}
   ]]>
  </style>
 </defs>
 <g id="Слой_x0020_1">
  <metadata id="CorelCorpID_0Corel-Layer"/>
  <g id="_2451895314768">
   <path class="fil0" d="M17297.11 15732.79c-333.19,-420.79 -237.87,-607.99 0,-984.12 4.29,-4.29 2754.86,-3805.1 3038.24,-5094.08l1.72 -0.85c140.83,-469.73 0,-814.95 -680.98,-814.95l-2253.37 -0.02c-573.64,0 -838.14,296.26 -979.83,627.75 0,0 -1147.29,2746.27 -2770.32,4526.46 -523.83,514.38 -765.99,679.27 -1051.96,679.27 -140.83,0 -359.81,-164.87 -359.81,-634.6l0 -4383.91c0,-563.34 -160.58,-814.95 -635.47,-814.95l-3543.2 -0.02c-359.81,0 -573.64,262.78 -573.64,507.53 0,534.13 811.51,656.94 895.68,2159.75l0 3260.67c0,714.48 -129.67,845.87 -417.35,845.87 -766,0 -2625.2,-2757.44 -3726.97,-5913.33 -222.41,-612.29 -439.68,-859.61 -1017.62,-859.61l-2254.2 -0.03c-643.2,0 -772.87,296.27 -772.87,627.75 0,585.66 766,3497.67 3562.09,7344.86 1863.47,2626.05 4487.82,4049 6875.13,4049 1434.97,0 1610.14,-316.03 1610.14,-859.61 0,-2509.26 -129.67,-2746.27 589.1,-2746.27 333.19,0 906.84,164.88 2246.49,1431.54 1531.14,1501.94 1782.76,2174.34 2639.79,2174.34l2253.35 0c642.33,0 967.8,-316.03 780.6,-939.47 -428.52,-1311.31 -3324.21,-4008.63 -3454.74,-4188.97z" data-original="#000000" data-old_color="#000000"/>
  </g>
 </g>
</svg>
