<?xml version="1.0" encoding="UTF-8"?>
<!DOCTYPE svg PUBLIC "-//W3C//DTD SVG 1.1//EN" "http://www.w3.org/Graphics/SVG/1.1/DTD/svg11.dtd">
<!-- Creator: CorelDRAW 2018 (64-Bit) -->
<svg xmlns="http://www.w3.org/2000/svg" xml:space="preserve" width="100mm" height="100mm" version="1.1" style="shape-rendering:geometricPrecision; text-rendering:geometricPrecision; image-rendering:optimizeQuality; fill-rule:evenodd; clip-rule:evenodd"
viewBox="0 0 10000 10000"
 xmlns:xlink="http://www.w3.org/1999/xlink">
 <defs>
  <style type="text/css">
   <![CDATA[
    .fil0 {fill:#5B43D6}
   ]]>
  </style>
 </defs>
 <g id="Слой_x0020_1">
  <metadata id="CorelCorpID_0Corel-Layer"/>
  <path class="fil0" d="M463.64 5023.49l0 4515.55 9031.1 0 0 -9031.1 -9031.1 0 0 4515.55zm5538.6 -158.75l0 405.69 -1164.16 0 0 3704.16 -952.5 0.01 0 -3704.17 -1164.17 0 0 -811.39 3280.83 0.01 0 405.69zm2293.06 -356.31c144.64,28.22 306.92,67.03 363.36,88.19l95.25 38.81 0 440.97c0,243.42 -7.06,440.97 -14.11,440.97 -7.05,0 -81.14,-38.81 -165.81,-84.67 -317.5,-179.92 -825.5,-246.94 -1135.94,-155.22 -74.08,21.17 -183.44,88.19 -239.89,144.64 -84.67,81.14 -102.31,130.53 -102.31,261.06 0,141.11 17.64,179.92 134.06,289.28 74.08,70.56 349.25,232.83 617.36,366.89 564.44,278.69 850.19,515.06 980.72,807.86 116.42,261.06 119.94,811.39 7.06,1058.33 -105.83,232.83 -338.67,469.19 -567.97,578.56 -486.83,229.31 -1280.58,250.47 -1901.47,45.86l-222.25 -74.08 0 -980.73 176.39 127c229.31,165.81 525.64,268.11 836.08,289.28 310.44,21.17 539.75,-35.28 680.86,-169.33 88.19,-81.14 105.83,-127 105.83,-261.06 0,-257.53 -148.17,-391.58 -754.94,-687.92 -536.22,-264.58 -705.55,-384.53 -864.3,-617.36 -352.78,-511.53 -246.94,-1294.69 225.78,-1651 402.17,-306.92 1068.92,-419.81 1746.25,-296.33l-0.01 0z"/>
 </g>
</svg>
